<svg width="120" height="100" viewBox="0 0 120 100" fill="none" xmlns="http://www.w3.org/2000/svg">
    <g id="triangles">
        <g id="lightgroup" opacity="0.7">
            <path id="light1" d="M51 48.268C52.3333 49.0378 52.3333 50.9623 51 51.7321L16.5 71.6506C15.1667 72.4204 13.5 71.4582 13.5 69.9186L13.5 30.0814C13.5 28.5418 15.1667 27.5796 16.5 28.3494L51 48.268Z" fill="#74D0F6"/>
        </g>
        <g id="darkgroup" opacity="0.7">
            <path id="dark2" d="M51 48.268C52.3333 49.0378 52.3333 50.9623 51 51.7321L16.5 71.6506C15.1667 72.4204 13.5 71.4582 13.5 69.9186L13.5 30.0814C13.5 28.5418 15.1667 27.5796 16.5 28.3494L51 48.268Z" fill="#9195FF"/>
            <path id="dark1" d="M67 48.268C68.3333 49.0378 68.3333 50.9623 67 51.7321L32.5 71.6506C31.1667 72.4204 29.5 71.4582 29.5 69.9186L29.5 30.0814C29.5 28.5418 31.1667 27.5796 32.5 28.3494L67 48.268Z" fill="#9195FF"/>
        </g>
    </g>
</svg>
